<mxfile host="app.diagrams.net" modified="2023-06-28T02:07:31.762Z" agent="Mozilla/5.0 (Windows NT 10.0; Win64; x64) AppleWebKit/537.36 (KHTML, like Gecko) Chrome/114.0.0.0 Safari/537.36" etag="eEEkS1dXtXN2sJfaD9_O" version="21.5.1" type="github">
  <diagram name="Page-1" id="7QetwW7pCA-he-E6Pq1_">
    <mxGraphModel dx="1050" dy="558" grid="1" gridSize="10" guides="1" tooltips="1" connect="1" arrows="1" fold="1" page="1" pageScale="1" pageWidth="850" pageHeight="1100" background="none" math="0" shadow="0">
      <root>
        <mxCell id="0" />
        <mxCell id="1" parent="0" />
        <mxCell id="G2tW0_qqeCLKrs9y1a2r-10" value="" style="rounded=0;whiteSpace=wrap;html=1;fillColor=none;dashed=1;" parent="1" vertex="1">
          <mxGeometry x="90" y="290" width="390" height="80" as="geometry" />
        </mxCell>
        <mxCell id="NZYSf9MTEoQ4en8vfmwZ-1" value="前端" style="shape=umlLifeline;perimeter=lifelinePerimeter;whiteSpace=wrap;html=1;container=1;dropTarget=0;collapsible=0;recursiveResize=0;outlineConnect=0;portConstraint=eastwest;newEdgeStyle={&quot;edgeStyle&quot;:&quot;elbowEdgeStyle&quot;,&quot;elbow&quot;:&quot;vertical&quot;,&quot;curved&quot;:0,&quot;rounded&quot;:0};" parent="1" vertex="1">
          <mxGeometry x="60" y="70" width="100" height="510" as="geometry" />
        </mxCell>
        <mxCell id="NZYSf9MTEoQ4en8vfmwZ-6" value="" style="html=1;points=[];perimeter=orthogonalPerimeter;outlineConnect=0;targetShapes=umlLifeline;portConstraint=eastwest;newEdgeStyle={&quot;edgeStyle&quot;:&quot;elbowEdgeStyle&quot;,&quot;elbow&quot;:&quot;vertical&quot;,&quot;curved&quot;:0,&quot;rounded&quot;:0};" parent="NZYSf9MTEoQ4en8vfmwZ-1" vertex="1">
          <mxGeometry x="45" y="178" width="10" height="182" as="geometry" />
        </mxCell>
        <mxCell id="NZYSf9MTEoQ4en8vfmwZ-32" value="" style="html=1;points=[];perimeter=orthogonalPerimeter;outlineConnect=0;targetShapes=umlLifeline;portConstraint=eastwest;newEdgeStyle={&quot;edgeStyle&quot;:&quot;elbowEdgeStyle&quot;,&quot;elbow&quot;:&quot;vertical&quot;,&quot;curved&quot;:0,&quot;rounded&quot;:0};" parent="NZYSf9MTEoQ4en8vfmwZ-1" vertex="1">
          <mxGeometry x="45" y="398" width="10" height="80" as="geometry" />
        </mxCell>
        <mxCell id="NZYSf9MTEoQ4en8vfmwZ-2" value="后端" style="shape=umlLifeline;perimeter=lifelinePerimeter;whiteSpace=wrap;html=1;container=1;dropTarget=0;collapsible=0;recursiveResize=0;outlineConnect=0;portConstraint=eastwest;newEdgeStyle={&quot;edgeStyle&quot;:&quot;elbowEdgeStyle&quot;,&quot;elbow&quot;:&quot;vertical&quot;,&quot;curved&quot;:0,&quot;rounded&quot;:0};" parent="1" vertex="1">
          <mxGeometry x="240" y="70" width="100" height="510" as="geometry" />
        </mxCell>
        <mxCell id="NZYSf9MTEoQ4en8vfmwZ-10" value="" style="html=1;points=[];perimeter=orthogonalPerimeter;outlineConnect=0;targetShapes=umlLifeline;portConstraint=eastwest;newEdgeStyle={&quot;edgeStyle&quot;:&quot;elbowEdgeStyle&quot;,&quot;elbow&quot;:&quot;vertical&quot;,&quot;curved&quot;:0,&quot;rounded&quot;:0};" parent="NZYSf9MTEoQ4en8vfmwZ-2" vertex="1">
          <mxGeometry x="45" y="178" width="10" height="182" as="geometry" />
        </mxCell>
        <mxCell id="NZYSf9MTEoQ4en8vfmwZ-46" value="" style="html=1;points=[];perimeter=orthogonalPerimeter;outlineConnect=0;targetShapes=umlLifeline;portConstraint=eastwest;newEdgeStyle={&quot;edgeStyle&quot;:&quot;elbowEdgeStyle&quot;,&quot;elbow&quot;:&quot;vertical&quot;,&quot;curved&quot;:0,&quot;rounded&quot;:0};" parent="NZYSf9MTEoQ4en8vfmwZ-2" vertex="1">
          <mxGeometry x="45" y="398" width="10" height="80" as="geometry" />
        </mxCell>
        <mxCell id="NZYSf9MTEoQ4en8vfmwZ-3" value="data service" style="shape=umlLifeline;perimeter=lifelinePerimeter;whiteSpace=wrap;html=1;container=1;dropTarget=0;collapsible=0;recursiveResize=0;outlineConnect=0;portConstraint=eastwest;newEdgeStyle={&quot;edgeStyle&quot;:&quot;elbowEdgeStyle&quot;,&quot;elbow&quot;:&quot;vertical&quot;,&quot;curved&quot;:0,&quot;rounded&quot;:0};" parent="1" vertex="1">
          <mxGeometry x="410" y="70" width="100" height="510" as="geometry" />
        </mxCell>
        <mxCell id="NZYSf9MTEoQ4en8vfmwZ-16" value="" style="html=1;points=[];perimeter=orthogonalPerimeter;outlineConnect=0;targetShapes=umlLifeline;portConstraint=eastwest;newEdgeStyle={&quot;edgeStyle&quot;:&quot;elbowEdgeStyle&quot;,&quot;elbow&quot;:&quot;vertical&quot;,&quot;curved&quot;:0,&quot;rounded&quot;:0};" parent="NZYSf9MTEoQ4en8vfmwZ-3" vertex="1">
          <mxGeometry x="45" y="203" width="10" height="157" as="geometry" />
        </mxCell>
        <mxCell id="NZYSf9MTEoQ4en8vfmwZ-47" value="" style="html=1;points=[];perimeter=orthogonalPerimeter;outlineConnect=0;targetShapes=umlLifeline;portConstraint=eastwest;newEdgeStyle={&quot;edgeStyle&quot;:&quot;elbowEdgeStyle&quot;,&quot;elbow&quot;:&quot;vertical&quot;,&quot;curved&quot;:0,&quot;rounded&quot;:0};" parent="NZYSf9MTEoQ4en8vfmwZ-3" vertex="1">
          <mxGeometry x="45" y="398" width="10" height="80" as="geometry" />
        </mxCell>
        <mxCell id="G2tW0_qqeCLKrs9y1a2r-2" value="" style="html=1;points=[];perimeter=orthogonalPerimeter;outlineConnect=0;targetShapes=umlLifeline;portConstraint=eastwest;newEdgeStyle={&quot;edgeStyle&quot;:&quot;elbowEdgeStyle&quot;,&quot;elbow&quot;:&quot;vertical&quot;,&quot;curved&quot;:0,&quot;rounded&quot;:0};" parent="NZYSf9MTEoQ4en8vfmwZ-3" vertex="1">
          <mxGeometry x="-305" y="93" width="10" height="50" as="geometry" />
        </mxCell>
        <mxCell id="G2tW0_qqeCLKrs9y1a2r-3" value="" style="html=1;points=[];perimeter=orthogonalPerimeter;outlineConnect=0;targetShapes=umlLifeline;portConstraint=eastwest;newEdgeStyle={&quot;edgeStyle&quot;:&quot;elbowEdgeStyle&quot;,&quot;elbow&quot;:&quot;vertical&quot;,&quot;curved&quot;:0,&quot;rounded&quot;:0};" parent="NZYSf9MTEoQ4en8vfmwZ-3" vertex="1">
          <mxGeometry x="-125" y="93" width="10" height="50" as="geometry" />
        </mxCell>
        <mxCell id="G2tW0_qqeCLKrs9y1a2r-5" value="preview" style="html=1;verticalAlign=bottom;startArrow=oval;startFill=1;endArrow=block;startSize=8;edgeStyle=elbowEdgeStyle;elbow=horizontal;curved=0;rounded=0;fillColor=#60a917;strokeColor=#66FFFF;fontColor=#66FFFF;" parent="NZYSf9MTEoQ4en8vfmwZ-3" edge="1">
          <mxGeometry width="60" relative="1" as="geometry">
            <mxPoint x="-300" y="103" as="sourcePoint" />
            <mxPoint x="-125" y="103" as="targetPoint" />
          </mxGeometry>
        </mxCell>
        <mxCell id="NZYSf9MTEoQ4en8vfmwZ-11" value="preDeployment" style="html=1;verticalAlign=bottom;startArrow=oval;endArrow=block;startSize=8;edgeStyle=elbowEdgeStyle;elbow=vertical;curved=0;rounded=0;fontColor=#66FFFF;" parent="1" target="NZYSf9MTEoQ4en8vfmwZ-10" edge="1">
          <mxGeometry relative="1" as="geometry">
            <mxPoint x="110" y="278" as="sourcePoint" />
          </mxGeometry>
        </mxCell>
        <mxCell id="NZYSf9MTEoQ4en8vfmwZ-12" value="Complete Deployment" style="html=1;verticalAlign=bottom;startArrow=oval;startFill=1;endArrow=block;startSize=8;edgeStyle=elbowEdgeStyle;elbow=vertical;curved=0;rounded=0;fontColor=#66FFFF;" parent="1" edge="1">
          <mxGeometry width="60" relative="1" as="geometry">
            <mxPoint x="110" y="388" as="sourcePoint" />
            <mxPoint x="285" y="388" as="targetPoint" />
          </mxGeometry>
        </mxCell>
        <mxCell id="NZYSf9MTEoQ4en8vfmwZ-13" value="creatJob" style="html=1;verticalAlign=bottom;startArrow=oval;startFill=1;endArrow=block;startSize=8;edgeStyle=elbowEdgeStyle;elbow=vertical;curved=0;rounded=0;" parent="1" edge="1">
          <mxGeometry width="60" relative="1" as="geometry">
            <mxPoint x="289.5" y="278" as="sourcePoint" />
            <mxPoint x="455" y="278" as="targetPoint" />
          </mxGeometry>
        </mxCell>
        <mxCell id="NZYSf9MTEoQ4en8vfmwZ-14" value="submit assignment" style="html=1;verticalAlign=bottom;startArrow=oval;startFill=1;endArrow=block;startSize=8;edgeStyle=elbowEdgeStyle;elbow=horizontal;curved=0;rounded=0;fontColor=#66FFFF;" parent="1" edge="1">
          <mxGeometry width="60" relative="1" as="geometry">
            <mxPoint x="110" y="418" as="sourcePoint" />
            <mxPoint x="285" y="418" as="targetPoint" />
          </mxGeometry>
        </mxCell>
        <mxCell id="NZYSf9MTEoQ4en8vfmwZ-15" value="createTriggerJob" style="html=1;verticalAlign=bottom;startArrow=oval;startFill=1;endArrow=block;startSize=8;edgeStyle=elbowEdgeStyle;elbow=vertical;curved=0;rounded=0;" parent="1" edge="1">
          <mxGeometry width="60" relative="1" as="geometry">
            <mxPoint x="290" y="418" as="sourcePoint" />
            <mxPoint x="455" y="418" as="targetPoint" />
          </mxGeometry>
        </mxCell>
        <mxCell id="NZYSf9MTEoQ4en8vfmwZ-17" value="Test Assignment" style="html=1;verticalAlign=bottom;startArrow=oval;startFill=1;endArrow=block;startSize=8;edgeStyle=elbowEdgeStyle;elbow=vertical;curved=0;rounded=0;" parent="1" edge="1">
          <mxGeometry width="60" relative="1" as="geometry">
            <mxPoint x="110" y="310" as="sourcePoint" />
            <mxPoint x="285" y="310" as="targetPoint" />
          </mxGeometry>
        </mxCell>
        <mxCell id="NZYSf9MTEoQ4en8vfmwZ-18" value="executeJob" style="html=1;verticalAlign=bottom;startArrow=oval;startFill=1;endArrow=block;startSize=8;edgeStyle=elbowEdgeStyle;elbow=vertical;curved=0;rounded=0;" parent="1" edge="1">
          <mxGeometry width="60" relative="1" as="geometry">
            <mxPoint x="290" y="310" as="sourcePoint" />
            <mxPoint x="455.5" y="310" as="targetPoint" />
          </mxGeometry>
        </mxCell>
        <mxCell id="NZYSf9MTEoQ4en8vfmwZ-19" value="SDK" style="shape=umlLifeline;perimeter=lifelinePerimeter;whiteSpace=wrap;html=1;container=1;dropTarget=0;collapsible=0;recursiveResize=0;outlineConnect=0;portConstraint=eastwest;newEdgeStyle={&quot;edgeStyle&quot;:&quot;elbowEdgeStyle&quot;,&quot;elbow&quot;:&quot;vertical&quot;,&quot;curved&quot;:0,&quot;rounded&quot;:0};" parent="1" vertex="1">
          <mxGeometry x="530" y="190" width="100" height="300" as="geometry" />
        </mxCell>
        <mxCell id="NZYSf9MTEoQ4en8vfmwZ-20" value="" style="html=1;points=[];perimeter=orthogonalPerimeter;outlineConnect=0;targetShapes=umlLifeline;portConstraint=eastwest;newEdgeStyle={&quot;edgeStyle&quot;:&quot;elbowEdgeStyle&quot;,&quot;elbow&quot;:&quot;vertical&quot;,&quot;curved&quot;:0,&quot;rounded&quot;:0};" parent="NZYSf9MTEoQ4en8vfmwZ-19" vertex="1">
          <mxGeometry x="45" y="80" width="10" height="130" as="geometry" />
        </mxCell>
        <mxCell id="NZYSf9MTEoQ4en8vfmwZ-21" value="后端" style="shape=umlLifeline;perimeter=lifelinePerimeter;whiteSpace=wrap;html=1;container=1;dropTarget=0;collapsible=0;recursiveResize=0;outlineConnect=0;portConstraint=eastwest;newEdgeStyle={&quot;edgeStyle&quot;:&quot;elbowEdgeStyle&quot;,&quot;elbow&quot;:&quot;vertical&quot;,&quot;curved&quot;:0,&quot;rounded&quot;:0};" parent="1" vertex="1">
          <mxGeometry x="710" y="190" width="100" height="300" as="geometry" />
        </mxCell>
        <mxCell id="NZYSf9MTEoQ4en8vfmwZ-22" value="" style="html=1;points=[];perimeter=orthogonalPerimeter;outlineConnect=0;targetShapes=umlLifeline;portConstraint=eastwest;newEdgeStyle={&quot;edgeStyle&quot;:&quot;elbowEdgeStyle&quot;,&quot;elbow&quot;:&quot;vertical&quot;,&quot;curved&quot;:0,&quot;rounded&quot;:0};" parent="NZYSf9MTEoQ4en8vfmwZ-21" vertex="1">
          <mxGeometry x="45" y="80" width="10" height="130" as="geometry" />
        </mxCell>
        <mxCell id="NZYSf9MTEoQ4en8vfmwZ-30" value="Customized API" style="html=1;verticalAlign=bottom;startArrow=oval;startFill=1;endArrow=block;startSize=8;edgeStyle=elbowEdgeStyle;elbow=vertical;curved=0;rounded=0;" parent="1" edge="1">
          <mxGeometry width="60" relative="1" as="geometry">
            <mxPoint x="580" y="310" as="sourcePoint" />
            <mxPoint x="755" y="310" as="targetPoint" />
          </mxGeometry>
        </mxCell>
        <mxCell id="NZYSf9MTEoQ4en8vfmwZ-48" value="enable assignment" style="html=1;verticalAlign=bottom;startArrow=oval;startFill=1;endArrow=block;startSize=8;edgeStyle=elbowEdgeStyle;elbow=horizontal;curved=0;rounded=0;" parent="1" edge="1">
          <mxGeometry width="60" relative="1" as="geometry">
            <mxPoint x="110" y="478" as="sourcePoint" />
            <mxPoint x="285" y="478" as="targetPoint" />
          </mxGeometry>
        </mxCell>
        <mxCell id="NZYSf9MTEoQ4en8vfmwZ-49" value="disable assignment" style="html=1;verticalAlign=bottom;startArrow=oval;startFill=1;endArrow=block;startSize=8;edgeStyle=elbowEdgeStyle;elbow=horizontal;curved=0;rounded=0;" parent="1" edge="1">
          <mxGeometry width="60" relative="1" as="geometry">
            <mxPoint x="110" y="528" as="sourcePoint" />
            <mxPoint x="285" y="528" as="targetPoint" />
          </mxGeometry>
        </mxCell>
        <mxCell id="NZYSf9MTEoQ4en8vfmwZ-52" value="enableJob" style="html=1;verticalAlign=bottom;startArrow=oval;startFill=1;endArrow=block;startSize=8;edgeStyle=elbowEdgeStyle;elbow=vertical;curved=0;rounded=0;" parent="1" edge="1">
          <mxGeometry width="60" relative="1" as="geometry">
            <mxPoint x="290" y="478" as="sourcePoint" />
            <mxPoint x="455" y="478" as="targetPoint" />
          </mxGeometry>
        </mxCell>
        <mxCell id="NZYSf9MTEoQ4en8vfmwZ-53" value="disableJob" style="html=1;verticalAlign=bottom;startArrow=oval;startFill=1;endArrow=block;startSize=8;edgeStyle=elbowEdgeStyle;elbow=vertical;curved=0;rounded=0;" parent="1" edge="1">
          <mxGeometry width="60" relative="1" as="geometry">
            <mxPoint x="290" y="528" as="sourcePoint" />
            <mxPoint x="455" y="528" as="targetPoint" />
          </mxGeometry>
        </mxCell>
        <mxCell id="NZYSf9MTEoQ4en8vfmwZ-54" value="assignments表添加字段&lt;br&gt;assignment_type：BY_REQUEST/BY_SCHEDULE&lt;br&gt;前端接口参数名：assignmentType&lt;br&gt;&lt;br&gt;reqInfo结构如下：&lt;br&gt;{&lt;br&gt;&amp;nbsp; &amp;nbsp; &quot;sql&quot;:&quot;select * from a where field1 = {{paramName1}}&quot;,&lt;br&gt;&amp;nbsp; &amp;nbsp; &quot;defaultValues&quot;:{&quot;paramName1&quot;:&quot;value1&quot;}&lt;br&gt;}" style="text;html=1;align=left;verticalAlign=middle;resizable=0;points=[];autosize=1;strokeColor=none;fillColor=none;" parent="1" vertex="1">
          <mxGeometry x="530" y="25" width="320" height="140" as="geometry" />
        </mxCell>
        <mxCell id="NZYSf9MTEoQ4en8vfmwZ-55" value="getResult" style="html=1;verticalAlign=bottom;startArrow=oval;startFill=1;endArrow=block;startSize=8;edgeStyle=elbowEdgeStyle;elbow=vertical;curved=0;rounded=0;" parent="1" edge="1">
          <mxGeometry width="60" relative="1" as="geometry">
            <mxPoint x="110" y="330" as="sourcePoint" />
            <mxPoint x="285" y="330" as="targetPoint" />
          </mxGeometry>
        </mxCell>
        <mxCell id="G2tW0_qqeCLKrs9y1a2r-1" value="costEstimation" style="html=1;verticalAlign=bottom;startArrow=oval;startFill=1;endArrow=block;startSize=8;edgeStyle=elbowEdgeStyle;elbow=vertical;curved=0;rounded=0;fontColor=#66FFFF;" parent="1" target="NZYSf9MTEoQ4en8vfmwZ-10" edge="1">
          <mxGeometry width="60" relative="1" as="geometry">
            <mxPoint x="110" y="248" as="sourcePoint" />
            <mxPoint x="170" y="248" as="targetPoint" />
          </mxGeometry>
        </mxCell>
        <mxCell id="G2tW0_qqeCLKrs9y1a2r-9" value="preview" style="html=1;verticalAlign=bottom;startArrow=oval;startFill=1;endArrow=block;startSize=8;edgeStyle=elbowEdgeStyle;elbow=vertical;curved=0;rounded=0;fontColor=#66FFFF;" parent="1" edge="1">
          <mxGeometry width="60" relative="1" as="geometry">
            <mxPoint x="110" y="360" as="sourcePoint" />
            <mxPoint x="285" y="360" as="targetPoint" />
          </mxGeometry>
        </mxCell>
      </root>
    </mxGraphModel>
  </diagram>
</mxfile>
